<?xml version="1.0" standalone="yes"?>

<svg version="1.1" viewBox="0.0 0.0 960.0 720.0" fill="none" stroke="none" stroke-linecap="square" stroke-miterlimit="10" xmlns="http://www.w3.org/2000/svg" xmlns:xlink="http://www.w3.org/1999/xlink"><clipPath id="p.0"><path d="m0 0l960.0 0l0 720.0l-960.0 0l0 -720.0z" clip-rule="nonzero"></path></clipPath><g clip-path="url(#p.0)"><path fill="#000000" fill-opacity="0.0" d="m0 0l960.0 0l0 720.0l-960.0 0z" fill-rule="evenodd"></path><path fill="#000000" fill-opacity="0.0" d="m253.94226 140.4147l283.81104 0l0 295.7795l-283.81104 0z" fill-rule="evenodd"></path><path fill="#5dd2ff" d="m320.536 334.6878q-13.234375 0 -23.890625 -6.515625q-10.65625 -6.53125 -16.8125 -18.90625q-6.140625 -12.390625 -6.140625 -29.296875q0 -29.17186 12.484375 -54.031235q12.484375 -24.875 36.859375 -39.9375q24.390625 -15.078125 58.5625 -15.078125q8.828125 0 18.90625 1.34375q10.078125 1.34375 18.34375 4.03125q5.375 1.53125 5.375 7.671875q0 5.0 -3.75 9.421875q-3.734375 4.40625 -8.734375 4.40625q-1.53125 0 -2.296875 -0.1875q-9.984375 -2.3125 -17.09375 -3.359375q-7.109375 -1.0625 -14.96875 -1.0625q-24.390625 0 -41.484375 11.8125q-17.078125 11.8125 -25.53125 31.203125q-8.453125 19.390625 -8.453125 41.843735q0 16.328125 6.4375 25.265625q6.4375 8.921875 16.796875 8.921875q11.71875 0 20.546875 -9.59375q8.828125 -9.609375 16.125 -31.109375q7.296875 -21.51561 14.40625 -58.374985q1.15625 -5.375 4.609375 -7.296875q3.453125 -1.921875 9.21875 -1.921875q13.625 0 13.625 8.84375q0 1.53125 -0.578125 3.828125q-4.984375 18.625 -9.125 41.187485q-4.125 22.5625 -4.125 34.28125q0 10.359375 3.078125 15.0625q3.078125 4.703125 9.40625 4.703125q6.140625 0 11.703125 -4.125q5.578125 -4.125 14.03125 -14.109375q2.296875 -2.6875 5.171875 -2.6875q2.5 0 3.9375 2.3125q1.453125 2.296875 1.453125 6.328125q0 7.484375 -3.65625 11.90625q-9.40625 11.328125 -18.4375 17.28125q-9.015625 5.9375 -22.078125 5.9375q-13.4375 0 -21.703125 -7.765625q-8.25 -7.78125 -10.359375 -21.984375q-14.203125 29.75 -41.859375 29.75z" fill-rule="nonzero"></path></g></svg>

