<svg version="1.1" width="463" height="208" viewBox="-1 -1 463 208" xmlns="http://www.w3.org/2000/svg" xmlns:xlink="http://www.w3.org/1999/xlink">
  <!-- Exported by Scratch - http://scratch.mit.edu/ -->
  <g id="ID0.49733933387324214" transform="matrix(1, 0, 0, 1, -56, -72)">
    <g id="ID0.686337046790868" transform="matrix(1, 0, 0, 1, 56, 72)">
      <path id="ID0.06713260849937797" fill="#71C1FF" d="M 321.163 143.402 L 467.556 143.402 L 467.556 313.207 L 443.157 337.606 L 321.163 337.606 Z " transform="matrix(0.8834103941917419, 0, 0, 0.8834103941917419, -262.35, -126.35)"/>
      <path id="ID0.06713260849937797" fill="#000000" d="M 321.163 143.402 L 467.556 143.402 L 467.556 313.207 L 443.157 337.606 L 321.163 337.606 Z " transform="matrix(-0.8834103941917419, 0, 0, -0.8834103941917419, 413.75, 298.95)"/>
    </g>
    <path id="ID0.8348584165796638" fill="#56A0FF" d="M 219.372 153.269 C 219.925 153.269 220.362 153.524 220.685 154.034 C 221.008 154.545 221.169 155.248 221.169 156.144 C 221.169 157.811 220.763 159.133 219.951 160.113 C 217.857 162.581 215.784 164.488 213.732 165.831 C 211.690 167.175 209.409 167.847 206.888 167.847 C 203.096 167.847 200.227 166.717 198.279 164.456 C 196.341 162.196 194.773 158.894 193.576 154.550 L 191.404 146.613 L 176.294 165.300 C 175.451 166.363 174.576 167.055 173.669 167.378 C 172.773 167.691 171.732 167.847 170.544 167.847 C 169.346 167.847 168.352 167.623 167.560 167.175 C 166.779 166.727 166.388 166.102 166.388 165.300 C 166.388 164.227 167.003 163.008 168.232 161.644 L 188.966 138.034 L 186.919 130.550 C 185.940 127.050 184.852 124.597 183.654 123.191 C 182.466 121.774 181.102 121.066 179.560 121.066 C 177.300 121.066 174.654 122.712 171.622 126.003 C 171.112 126.555 170.539 126.831 169.904 126.831 C 169.258 126.831 168.711 126.587 168.263 126.097 C 167.815 125.607 167.591 124.977 167.591 124.206 C 167.591 122.925 168.211 121.540 169.451 120.050 C 171.201 117.998 173.096 116.357 175.138 115.128 C 177.190 113.889 179.628 113.269 182.451 113.269 C 185.471 113.269 187.961 114.217 189.919 116.113 C 191.888 118.008 193.451 121.071 194.607 125.300 L 195.888 129.769 L 207.091 116.144 C 207.945 115.123 208.820 114.399 209.716 113.972 C 210.612 113.545 211.695 113.331 212.966 113.331 C 214.122 113.331 215.029 113.545 215.685 113.972 C 216.352 114.399 216.685 114.993 216.685 115.753 C 216.685 116.784 216.107 117.962 214.951 119.284 L 198.310 138.472 L 201.966 151.534 C 202.602 153.795 203.175 155.524 203.685 156.722 C 204.206 157.909 204.836 158.795 205.576 159.378 C 206.326 159.951 207.320 160.238 208.560 160.238 C 209.883 160.238 211.258 159.769 212.685 158.831 C 214.112 157.894 215.763 156.337 217.638 154.159 C 218.159 153.566 218.737 153.269 219.372 153.269 Z M 238.893 155.175 C 239.446 155.175 239.883 155.436 240.206 155.956 C 240.529 156.467 240.690 157.170 240.690 158.066 C 240.690 159.597 240.326 160.920 239.597 162.034 C 238.399 163.868 236.831 165.295 234.893 166.316 C 232.956 167.337 230.643 167.847 227.956 167.847 C 223.852 167.847 220.670 166.623 218.409 164.175 C 216.149 161.717 215.018 158.399 215.018 154.222 C 215.018 151.274 215.638 148.534 216.878 146.003 C 218.117 143.462 219.836 141.446 222.034 139.956 C 224.232 138.456 226.716 137.706 229.487 137.706 C 231.956 137.706 233.935 138.446 235.425 139.925 C 236.925 141.394 237.675 143.389 237.675 145.909 C 237.675 148.847 236.617 151.373 234.503 153.488 C 232.399 155.602 228.805 157.274 223.722 158.503 C 224.753 160.472 226.482 161.456 228.909 161.456 C 230.659 161.456 232.097 161.050 233.222 160.238 C 234.357 159.425 235.670 158.061 237.159 156.144 C 237.680 155.498 238.258 155.175 238.893 155.175 Z M 228.393 143.988 C 226.821 143.988 225.487 144.904 224.393 146.738 C 223.310 148.571 222.768 150.790 222.768 153.394 L 222.768 153.519 C 225.279 152.925 227.258 152.029 228.706 150.831 C 230.164 149.633 230.893 148.248 230.893 146.675 C 230.893 145.863 230.670 145.212 230.222 144.722 C 229.774 144.232 229.164 143.988 228.393 143.988 Z M 254.182 167.847 C 250.130 167.847 246.963 166.665 244.682 164.300 C 242.401 161.936 241.260 158.811 241.260 154.925 C 241.260 151.467 241.942 148.441 243.307 145.847 C 244.671 143.243 246.442 141.238 248.619 139.831 C 250.796 138.415 253.078 137.706 255.463 137.706 C 257.817 137.706 259.645 138.404 260.947 139.800 C 262.250 141.186 262.901 142.962 262.901 145.128 C 262.901 146.920 262.505 148.436 261.713 149.675 C 260.921 150.915 259.885 151.534 258.604 151.534 C 257.791 151.534 257.140 151.342 256.651 150.956 C 256.161 150.571 255.916 150.040 255.916 149.363 C 255.916 149.061 255.958 148.717 256.041 148.331 C 256.125 147.946 256.192 147.670 256.244 147.503 C 256.453 146.868 256.557 146.269 256.557 145.706 C 256.557 145.154 256.416 144.732 256.135 144.441 C 255.864 144.139 255.473 143.988 254.963 143.988 C 253.973 143.988 253.052 144.425 252.197 145.300 C 251.354 146.175 250.671 147.357 250.151 148.847 C 249.640 150.337 249.385 151.977 249.385 153.769 C 249.385 156.206 249.885 158.055 250.885 159.316 C 251.895 160.566 253.317 161.191 255.151 161.191 C 256.598 161.191 257.932 160.769 259.151 159.925 C 260.369 159.071 261.572 157.811 262.760 156.144 C 263.270 155.498 263.848 155.175 264.494 155.175 C 265.046 155.175 265.484 155.436 265.807 155.956 C 266.130 156.467 266.291 157.170 266.291 158.066 C 266.291 159.597 265.927 160.920 265.197 162.034 C 264.041 163.826 262.526 165.243 260.651 166.284 C 258.776 167.326 256.619 167.847 254.182 167.847 Z M 278.694 143.784 C 278.611 145.920 278.569 147.587 278.569 148.784 C 278.569 151.857 278.730 154.258 279.053 155.988 C 279.376 157.717 279.908 158.956 280.647 159.706 C 281.397 160.446 282.434 160.816 283.757 160.816 C 284.444 160.816 285.257 160.602 286.194 160.175 C 287.132 159.748 287.986 159.191 288.757 158.503 C 289.225 158.087 289.694 157.878 290.163 157.878 C 290.673 157.878 291.085 158.165 291.397 158.738 C 291.720 159.311 291.882 160.003 291.882 160.816 C 291.882 161.628 291.720 162.420 291.397 163.191 C 291.085 163.951 290.605 164.587 289.960 165.097 C 287.741 166.930 285.225 167.847 282.413 167.847 C 278.361 167.847 275.392 166.154 273.507 162.769 C 271.632 159.373 270.694 154.946 270.694 149.488 C 270.694 147.613 270.762 145.712 270.897 143.784 L 268.397 143.784 C 267.116 143.784 266.251 143.550 265.803 143.081 C 265.355 142.613 265.132 141.868 265.132 140.847 C 265.132 138.462 266.090 137.269 268.007 137.269 L 271.663 137.269 C 272.392 132.571 273.501 128.284 274.991 124.409 C 276.480 120.524 278.283 117.430 280.397 115.128 C 282.512 112.816 284.783 111.659 287.210 111.659 C 289.001 111.659 290.408 112.451 291.428 114.034 C 292.460 115.607 292.975 117.592 292.975 119.988 C 292.975 126.602 290.199 132.363 284.647 137.269 L 291.819 137.269 C 292.507 137.269 292.996 137.420 293.288 137.722 C 293.590 138.014 293.741 138.566 293.741 139.378 C 293.741 142.316 291.329 143.784 286.507 143.784 L 278.694 143.784 Z M 285.491 117.800 C 284.845 117.800 284.126 118.602 283.335 120.206 C 282.553 121.811 281.809 124.029 281.100 126.863 C 280.392 129.696 279.803 132.842 279.335 136.300 C 281.855 134.123 283.746 131.680 285.007 128.972 C 286.267 126.264 286.897 123.800 286.897 121.581 C 286.897 119.061 286.428 117.800 285.491 117.800 Z M 305.392 167.847 C 302.871 167.847 300.725 167.222 298.954 165.972 C 297.183 164.712 295.850 163.061 294.954 161.019 C 294.058 158.967 293.610 156.764 293.610 154.409 C 293.610 151.170 294.220 148.284 295.439 145.753 C 296.657 143.212 298.308 141.227 300.392 139.800 C 302.485 138.363 304.834 137.644 307.439 137.644 C 309.959 137.644 312.116 138.274 313.907 139.534 C 315.699 140.795 317.043 142.451 317.939 144.503 C 318.834 146.545 319.282 148.738 319.282 151.081 C 319.282 154.331 318.662 157.227 317.423 159.769 C 316.183 162.300 314.506 164.279 312.392 165.706 C 310.287 167.133 307.954 167.847 305.392 167.847 Z M 306.095 160.941 C 307.543 160.941 308.767 160.154 309.767 158.581 C 310.777 156.998 311.282 154.691 311.282 151.659 C 311.282 149.316 310.855 147.550 310.001 146.363 C 309.147 145.165 308.121 144.566 306.923 144.566 C 305.392 144.566 304.121 145.347 303.110 146.909 C 302.110 148.462 301.610 150.769 301.610 153.831 C 301.610 156.269 302.037 158.066 302.892 159.222 C 303.746 160.368 304.814 160.941 306.095 160.941 Z M 335.462 169.269 C 333.243 169.269 331.545 168.753 330.368 167.722 C 329.201 166.701 328.618 165.550 328.618 164.269 C 328.618 163.165 329.024 162.206 329.837 161.394 C 330.649 160.581 331.842 160.175 333.415 160.175 C 333.977 160.175 334.628 160.227 335.368 160.331 C 336.118 160.436 336.686 160.514 337.071 160.566 C 337.029 159.451 336.785 158.404 336.337 157.425 C 335.889 156.446 335.321 155.498 334.634 154.581 C 333.956 153.654 333.316 152.852 332.712 152.175 C 331.389 154.696 330.076 156.790 328.774 158.456 C 327.483 160.113 326.066 161.686 324.524 163.175 C 323.753 163.946 322.941 164.331 322.087 164.331 C 321.410 164.331 320.858 164.087 320.430 163.597 C 320.003 163.107 319.790 162.498 319.790 161.769 C 319.790 160.915 320.087 160.128 320.680 159.409 L 321.524 158.378 C 323.868 155.482 325.639 153.097 326.837 151.222 C 327.597 149.982 328.373 148.508 329.165 146.800 C 329.956 145.092 330.993 142.764 332.274 139.816 C 333.076 137.941 334.759 137.003 337.321 137.003 C 338.519 137.003 339.352 137.113 339.821 137.331 C 340.290 137.540 340.524 137.878 340.524 138.347 C 340.524 138.607 340.436 139.014 340.259 139.566 C 340.092 140.118 339.863 140.675 339.571 141.238 C 338.800 142.769 338.415 144.066 338.415 145.128 C 338.415 145.774 338.639 146.482 339.087 147.253 C 339.535 148.014 340.227 148.972 341.165 150.128 C 342.529 151.920 343.561 153.446 344.259 154.706 C 344.967 155.967 345.321 157.342 345.321 158.831 C 345.321 160.623 344.904 162.321 344.071 163.925 C 343.248 165.519 342.087 166.805 340.587 167.784 C 339.097 168.774 337.389 169.269 335.462 169.269 Z " transform="matrix(1.3541666269302368, 0, 0, 1.3541666269302368, -5.85, -22.25)"/>
  </g>
</svg>
